<svg width="296" height="74" viewBox="0 0 296 74" fill="none" xmlns="http://www.w3.org/2000/svg">
<path d="M87.754 26.3294C87.9202 26.113 88.0906 25.9009 88.2568 25.6844C88.3803 25.6281 88.8234 25.2255 88.4911 25.2125C86.135 25.087 83.5148 25.2905 80.9542 25.2125C78.138 27.5199 75.2153 29.9095 72.5653 32.2385C72.2031 32.5589 71.8537 33.048 71.3212 33.1087C71.2701 29.8186 71.7132 27.5502 71.7856 24.6628C71.547 24.2472 71.53 23.6065 71.0102 23.4766H70.9335C69.6319 24.0912 68.4063 24.8599 67.2822 25.7667C66.9967 26.1087 66.4386 26.1736 66.3492 26.7147C66.1095 28.7023 66.1698 30.7154 66.5281 32.6844C66.5664 33.2082 66.6133 33.7277 66.6602 34.2342L67.18 35.5416C68.3985 36.3554 69.1313 37.5416 70.4478 38.2558C71.0232 37.9336 71.5781 37.5751 72.1094 37.1822C70.4009 39.1606 68.6328 41.087 66.9754 43.139C65.8251 44.5632 64.7685 46.1043 63.6352 47.5589C62.4806 49.0394 61.2962 50.468 60.2183 51.9788C56.976 56.5199 53.5548 60.9355 50.1975 65.2385C49.0472 66.7104 47.7307 68.0437 46.7806 69.6584C46.4089 69.9062 46.0913 70.2289 45.8475 70.6065C46.3716 70.3467 46.8658 70.061 47.4026 69.8186C47.9437 69.0307 48.5742 68.2299 49.2304 67.4377C48.3783 68.6022 47.6369 69.8706 46.6059 70.8532C46.5761 70.9398 46.5121 71.0437 46.6059 70.9355C47.0788 70.732 47.4708 70.4463 47.9266 70.2255C49.7672 67.784 51.6205 65.3511 53.6784 63.1216C54.4112 63.0524 54.5986 62.3641 55.1525 62.0957C55.52 61.9312 55.9184 61.85 56.3199 61.8576C57.6608 60.8888 59.1593 60.1678 60.7466 59.7277C61.0831 59.6758 61.1811 59.8619 61.3686 59.9658C70.3924 48.6931 79.6761 37.6801 88.636 26.3381C88.3335 26.3338 88.0395 26.3294 87.754 26.3294ZM49.3582 67.2558C50.0484 66.4247 50.7556 65.6065 51.416 64.8143C50.8702 65.74 50.1745 66.5655 49.3582 67.2558ZM222.561 20.0913C222.531 19.429 222.864 19.1346 222.949 18.5935C222.851 18.5892 222.842 18.4939 222.719 18.5156C222.51 19.0697 222.059 19.3727 221.863 19.9355C222.216 19.8619 222.301 20.0654 222.561 20.0913ZM57.8792 40.7753C58.9231 40.7017 60.1288 40.9009 60.9085 40.6151C61.6328 40.9355 62.5828 40.403 63.3157 40.5372C63.8227 40.6281 63.8354 41.0134 64.3254 41.0913C65.5993 40.0697 66.5153 38.6844 67.6657 37.5372C67.5336 37.0913 67.4569 36.5935 67.3546 36.1173L66.8902 35.4074H66.4045C66.3815 35.0675 66.2793 34.7381 66.1063 34.4463C65.8493 34.4853 65.5879 34.4853 65.3309 34.4463C64.9815 34.4333 64.6492 34.5372 64.4745 34.4463C63.8339 34.0043 63.2361 33.5013 62.6894 32.9441C62.2974 32.5848 61.2791 31.6628 60.7466 31.6022C60.231 31.5459 59.626 31.9052 59.0381 32.0784C58.4526 32.2707 57.8565 32.4283 57.2529 32.5502C56.1409 32.7147 54.833 32.6628 53.6017 32.7104C45.8858 32.9831 37.3265 33.5502 29.7811 33.6455C39.2053 28.5459 48.8171 22.8706 58.2712 17.6498C58.9827 17.2558 59.8859 16.6195 60.3674 16.5459C61.0618 16.4333 61.9395 16.6931 62.6212 16.784C63.3296 16.8553 64.0307 16.9871 64.7174 17.1779C66.5963 16.113 68.7052 15.2818 70.5458 14.1779C70.1519 13.9993 69.8057 13.7277 69.536 13.3857C69.5459 13.3227 69.5473 13.2586 69.5403 13.1952C69.8726 13.0307 70.2049 12.8792 70.5372 12.7407C69.9749 11.9874 68.931 11.5329 67.9511 10.9658C67.8616 10.8619 67.687 10.7796 67.7935 10.6325C66.7667 9.99177 65.7825 9.30779 64.6875 8.73636C63.6054 9.11298 63.0387 9.47662 61.9523 9.84025C61.7819 9.93116 61.4922 9.63246 61.2536 9.60216C59.6431 10.5867 57.9543 11.4323 56.2048 12.1303C54.9106 12.6825 53.6637 13.3427 52.4769 14.1043C52.0892 14.3554 51.6461 14.5805 51.2328 14.8143L50.1549 15.6281C36.8834 22.3727 26.0787 27.1519 13.2843 33.1043C13.5041 33.2389 13.7024 33.4067 13.8723 33.6022L8.31228 35.6325C6.71033 36.5242 4.0688 37.5242 1.86611 36.8186C1.19588 37.0952 0.567602 37.4668 0 37.9225C0.643339 38.2688 1.33354 38.6151 2.04505 38.9571C1.93422 39.0059 1.82612 39.0608 1.72125 39.1216C3.85151 40.1087 6.31836 41.3338 8.55939 42.2775C9.339 42.6503 10.1434 42.9671 10.9666 43.2255C11.5586 43.3121 12.1597 43.3121 12.7518 43.2255C15.2399 43.113 17.6002 42.9701 19.9776 42.7537C21.3452 42.6281 22.7555 42.3554 24.0933 42.3597C26.2917 42.3641 28.4816 42.442 30.6971 42.4377C32.9296 42.4377 35.1919 42.1476 37.4543 42.0437C41.898 41.8446 46.461 41.6195 51.0496 41.3338C53.3546 41.1866 55.651 40.9312 57.8792 40.7753ZM216.58 38.087C216.852 37.5892 217.159 37.074 217.436 36.5892C219.127 33.5719 220.87 30.6238 222.566 27.6671C222.14 26.5199 221.283 25.8143 221.321 24.1952C221.381 23.8879 221.803 23.9485 221.867 23.6411C221.454 22.6455 221.982 21.6671 222.101 20.5632C222.054 20.5858 222 20.5908 221.95 20.5773C221.899 20.5639 221.855 20.5329 221.824 20.4896C221.846 20.3529 221.841 20.2134 221.811 20.0784C221.77 20.1605 221.708 20.2305 221.633 20.2818C221.624 20.2818 221.615 20.2905 221.607 20.2948C221.359 20.4273 221.081 20.4886 220.802 20.4723C218.075 25.0437 215.054 29.7537 212.255 34.2861C211.898 34.9796 211.481 35.6401 211.011 36.2602C210.355 36.9571 209.29 37.416 208.446 37.9961C205.813 39.8186 203.359 41.6238 200.679 43.2861C200.63 43.2914 200.582 43.3077 200.539 43.3338C201.148 41.7407 201.932 40.1649 202.447 38.5632C202.784 37.5156 203.138 36.4939 202.95 35.5675C203.037 34.9832 203.06 34.3908 203.018 33.8013C205.63 32.8662 208.22 31.9095 210.76 30.9052C211.135 28.7061 211.458 26.4593 212.08 24.5112C212.123 24.4333 212.481 24.1606 212.157 24.1952C212.008 24.2082 211.859 24.2169 211.71 24.2299C211.735 24.0827 211.761 23.9355 211.791 23.7883C211.786 23.5978 212.068 23.0351 211.791 23.0784H211.403C209.984 23.2169 208.485 23.2732 207.053 23.3944C206.367 24.0264 205.336 23.8576 204.024 23.9485C203.355 23.9918 202.631 24.0567 201.928 24.1087C200.015 24.2472 198.016 24.5286 196.879 24.1087C189.96 24.784 182.636 25.0524 175.359 25.3727C173.437 29.8143 171.209 33.9442 169.143 38.2385C166.944 38.9788 164.899 39.8749 162.697 40.6065C162.769 41.0221 163.251 41.2429 163.549 41.4723C163.569 41.4871 163.589 41.503 163.608 41.5199C163.323 41.6368 163.029 41.7537 162.748 41.8792C163.408 42.3164 164.034 42.8792 164.691 43.3814C165.153 43.7748 165.651 44.1227 166.178 44.4203C165.181 46.455 164.243 48.5329 163.391 50.6281C163.199 51.0957 162.884 51.5069 162.692 51.9701C162.586 52.2255 162.565 52.5199 162.458 52.758C162.356 52.9961 162.19 53.2212 162.07 53.468C158.854 60.1693 155.871 66.8835 152.667 73.5199C153.089 73.4636 153.174 73.0697 153.524 72.81C153.643 72.7214 153.77 72.6432 153.903 72.5762C153.686 73.0524 153.473 73.5286 153.268 74.0004C153.626 73.0827 154.636 73.1216 155.211 72.4203C155.528 71.8979 155.788 71.3419 155.986 70.7623C156.753 69.0524 157.503 67.3208 158.474 65.9485C159.246 65.8576 159.356 65.0654 160.106 65.1606C161.141 64.0805 162.318 63.151 163.604 62.3987C164.066 62.1748 164.508 61.9112 164.925 61.6108C165.351 61.1952 165.709 60.1649 166.092 59.403C168.056 55.4723 169.833 51.7017 171.686 47.9571C172.458 46.3987 173.054 44.7753 174.017 43.4593C181.967 40.7753 190.083 38.2558 198.016 35.5545C196.414 39.1779 194.744 42.7407 193.539 46.7667C193.777 46.9615 194.02 47.1519 194.259 47.3467C194.195 47.6065 194.118 47.8532 194.063 48.1216C195.136 49.1346 196.397 49.9615 197.561 50.8835C199.073 49.4939 200.833 48.3987 202.533 47.2515C203.836 46.3684 205.068 45.4203 206.337 44.5675C206.486 44.468 206.635 44.3511 206.789 44.2385C206.299 45.2299 205.783 46.1952 205.349 47.2429C205.534 47.3529 205.733 47.4359 205.941 47.4896C205.789 47.811 205.712 48.1634 205.715 48.5199C205.886 48.5416 206.376 48.745 206.725 48.8359C207.786 49.6022 208.928 50.1476 210.061 50.8446C210.321 49.9528 210.879 49.3121 211.156 48.5199C211.654 47.8835 213.657 43.1909 215.152 40.8965L216.58 38.087ZM221.645 21.1433C221.636 21.2439 221.657 21.3449 221.705 21.4333C221.611 21.5632 221.509 21.6931 221.407 21.8186C221.483 21.5892 221.569 21.3684 221.645 21.1433ZM177.813 36.1087C178.085 35.6787 178.269 35.1972 178.354 34.6931C179.164 33.5156 179.615 31.9745 180.531 30.9052C186.36 30.4377 192.657 29.9874 198.851 29.5805C191.996 31.9182 184.983 34.0942 177.813 36.1087ZM156.911 48.6671C158.044 48.9831 159.16 49.3554 160.174 49.5372C161.075 48.8574 161.908 48.0904 162.663 47.2472C163.05 46.8532 163.434 46.455 163.826 46.0654C164.218 45.6758 164.801 45.3381 164.912 44.7234C164.712 44.6411 164.503 44.5632 164.299 44.4853C164.535 44.2119 164.748 43.9178 164.933 43.6065C162.1 42.2602 159.024 41.4506 156.076 40.2905C153.558 39.2991 151.07 38.2515 148.654 37.1909C151.858 36.3727 155.049 35.4853 158.155 34.5416C161.321 33.5762 164.669 32.6411 167.4 31.3035C167.798 31.0811 168.214 30.8956 168.644 30.7493C168.508 30.5112 168.355 30.2905 168.206 30.0654C168.383 29.9187 168.538 29.7466 168.666 29.5545C167.826 28.3294 166.889 27.2039 166.178 25.8446C156.502 24.9398 146.532 24.3338 136.111 24.1866C135.728 24.455 135.638 25.0264 135.178 25.2125C128.135 25.1346 120.892 24.9182 114.046 24.8965C113.56 25.5502 113.053 26.1822 112.567 26.8706C112.09 27.5545 111.724 28.3684 111.093 28.9225C110.642 27.9615 110.079 27.1087 109.619 26.1606C106.194 26.0654 102.7 26.0394 99.2787 25.9485C102.538 21.8965 106.023 17.5416 109.368 13.4636C109.892 12.8273 110.821 11.9615 110.923 11.4117C110.976 10.6477 110.95 9.88019 110.846 9.12164C110.791 8.76233 110.569 8.49826 110.535 8.17359C110.458 7.44632 110.769 6.88355 110.769 6.12164C111.323 5.65411 111.404 4.76666 111.856 4.22554C112.09 3.94415 112.397 3.93549 112.555 3.5935C113.062 2.74069 113.88 1.88355 114.34 1.06969C114.425 0.918177 114.6 0.840255 114.416 0.675753C113.432 1.60216 113.462 1.94415 113.108 2.29913C112.849 2.55887 113.083 2.07402 112.785 2.25584C112.6 2.60023 112.351 2.90464 112.052 3.15194C112.11 3.09649 112.155 3.02842 112.184 2.95281C112.678 2.08701 113.513 1.23852 113.969 0.424671C114.054 0.273155 114.225 0.199562 114.046 0.0307312C112.942 1.18658 113.317 0.8619 112.959 1.21688C112.857 1.55887 112.474 1.26017 112.414 1.5329C111.88 2.07285 111.387 2.65316 110.94 3.26883C110.727 3.62813 110.671 4.01342 110.475 4.37272C110.139 4.99177 109.432 5.4593 108.92 6.10865C108.188 7.04372 107.71 8.27316 106.901 9.03073C106.88 9.27316 106.73 9.38571 106.666 9.58484C106.432 9.49393 106.219 10.0351 106.202 9.66277C106.219 9.55021 106.33 9.52857 106.36 9.42467C106.479 9.39437 106.373 9.32943 106.283 9.42467C105.627 9.55021 105.388 10.0957 104.962 10.4506C104.639 10.5865 104.276 10.5865 103.953 10.4506C99.1978 16.2429 94.115 21.7277 89.4242 27.5805C84.7163 33.455 80.051 39.3597 75.6712 45.5805C75.8629 45.7104 76.0504 45.8403 76.2378 45.9701C76.0844 46.2082 75.9396 46.4506 75.8075 46.6931C78.2445 48.403 80.5878 50.2039 83.1867 51.745C91.5672 45.3208 100.335 38.9355 108.69 32.5675C106.364 35.8835 104.059 39.2212 101.775 42.5805C102.014 42.7364 102.236 42.9138 102.461 43.087C102.342 43.2951 102.285 43.5347 102.299 43.7753C102.389 44.2169 103.42 44.784 103.931 45.1952C104.459 45.6945 105.031 46.1437 105.64 46.5372C106.036 46.3597 106.462 46.2169 106.884 46.0654C107.097 45.9485 107.28 46.1087 107.583 45.9874C113.215 44.2645 119.393 43.0957 125.762 42.1216C126.346 40.8446 127.181 39.8273 127.547 38.3338C127.407 38.3467 127.262 38.3597 127.121 38.3771C127.357 37.9019 127.557 37.41 127.722 36.9052C122.294 37.771 116.832 38.5978 111.651 39.7147C112.222 38.6411 112.87 37.5329 113.483 36.6022C118.055 36.0394 122.78 35.6281 127.313 35.0221C127.887 34.245 128.407 33.4277 128.868 32.5762C129.017 32.3294 129.298 32.0827 129.256 31.7883C129.064 31.8013 128.872 31.81 128.681 31.8186C128.868 31.5329 129.064 31.2515 129.277 30.9874C129.294 30.8576 129.882 30.7017 129.511 30.6714C124.893 30.8273 120.99 30.9615 116.474 31.1952C116.666 30.8099 116.862 30.429 117.058 30.0524C119.41 30.1216 121.638 29.8403 123.585 29.7364C123.862 29.4723 124.045 29.0091 124.518 28.8662C125.183 28.6671 126.495 28.8403 127.705 28.7883C129.793 28.6974 131.663 28.8835 133.376 28.8662C133.681 28.593 133.943 28.2732 134.151 27.9182C134.155 27.9182 134.16 27.9138 134.164 27.9138C131.859 33.074 129.644 38.2039 127.334 43.2991C126.482 45.1822 125.43 47.0221 124.846 49.061C124.965 49.2169 125.085 49.3684 125.208 49.5242C125.132 49.7407 125.046 49.9571 124.978 50.1779C125.434 50.9225 125.715 51.0394 126.444 52.0004C127.195 52.8687 128.004 53.6844 128.864 54.442C130.525 50.7883 131.965 46.9831 133.759 43.39L135.233 40.074C135.999 40.3234 136.752 40.6139 137.487 40.9442C139.2 41.7147 140.883 42.4593 142.536 43.1519C143.35 43.4939 144.091 43.9095 144.866 44.2602L155.185 48.061C155.692 48.2385 156.37 48.5156 156.911 48.6671ZM110.394 5.47662C110.788 4.90534 111.127 4.2964 111.404 3.65844C111.579 3.48475 111.774 3.33223 111.984 3.20389C111.75 3.4057 111.547 3.64211 111.383 3.90519C111.144 4.3251 111.106 4.84458 110.838 5.24718C110.682 5.47075 110.504 5.67682 110.305 5.8619C110.335 5.73636 110.356 5.60649 110.394 5.47662ZM93.7699 36.3424C91.5203 37.8835 89.241 39.442 87.0383 40.9745C89.6287 37.7623 92.3171 34.403 94.9927 31.3035C95.0119 31.2486 95.0429 31.1988 95.0835 31.1576C95.124 31.1164 95.173 31.0849 95.227 31.0654C97.0718 31.1693 98.9379 31.2515 100.732 31.4117C98.5417 33.0567 96.126 34.7234 93.7699 36.3424ZM134.833 26.3987C134.799 26.3987 134.765 26.3944 134.735 26.3944C134.777 26.3635 134.823 26.3374 134.871 26.3164C134.856 26.3426 134.843 26.3701 134.833 26.3987ZM140.073 33.6541C139.349 33.3208 138.586 33.0307 137.802 32.7623C138.232 31.5901 138.724 30.4427 139.277 29.3251C144.402 29.2558 150.064 29.4117 155.126 29.6541C150.201 31.0827 145.105 32.3381 140.073 33.6541ZM243.08 27.0307C243.289 26.6325 243.502 26.2429 243.715 25.8446C241.806 25.7364 239.655 26.1909 238.121 25.9225C235.833 29.3078 233.95 33.3857 231.905 36.8922C231.619 37.4499 231.297 37.9878 230.942 38.5026C229.987 34.4463 229.033 30.074 227.712 26.39H226.004C226.23 25.9052 225.914 25.758 225.693 25.5199C225.812 25.087 226.161 24.8879 226.157 24.3338L225.846 24.5719C224.794 26.3467 223.857 28.1563 222.97 30.0177C222.097 31.8619 220.985 33.5935 220.018 35.3857C218.071 38.9918 216.081 42.5805 214.347 46.3597C214.713 46.2255 214.765 46.1563 215.046 46.2169C214.858 46.6108 214.667 47.0004 214.483 47.3944C214.824 47.074 214.897 47.2732 215.416 47.3164C216.946 46.9268 219.012 46.8143 220.776 46.4463C222.429 43.416 224.125 40.429 225.825 37.4463C226.647 40.7667 227.397 44.1649 228.232 47.4723C229.736 47.504 231.241 47.4505 232.74 47.3121C236.391 40.5459 240.093 33.8403 243.693 27.0264C243.489 27.0264 243.284 27.0264 243.08 27.0307H243.08ZM295.476 63.061C295.651 63.1519 295.825 63.2472 296 63.3381C295.876 63.1216 295.591 63.0697 295.531 62.784C295.435 62.4225 295.435 62.0416 295.531 61.6801C295.278 61.4656 295.044 61.2279 294.833 60.9701C294.709 61.0351 294.833 60.3381 294.833 60.3381C294.534 60.1346 294.228 59.9355 293.912 59.7407C293.953 59.6318 293.968 59.5145 293.955 59.3987C286.158 54.784 278.221 50.3727 270.492 45.7407C269.031 44.8619 267.552 44.0134 266.087 43.1476C265.985 42.6887 265.882 42.2342 265.772 41.784C264.975 41.3511 264.204 40.9009 263.445 40.4333C263.464 40.4142 263.481 40.394 263.496 40.3727C263.769 40.2299 264.029 40.1563 264.353 39.9788C264.046 39.7753 263.731 39.5762 263.415 39.3771C263.715 39.1933 264.036 39.0465 264.37 38.9398C263.748 38.5329 263.049 38.0134 262.35 37.5978C260.893 36.732 259.453 35.8186 258.077 34.9918C257.659 34.7407 257.221 34.5372 256.812 34.2905C258.959 33.1 261.179 31.9615 263.415 30.7364C264.638 30.0697 265.916 29.442 267.148 28.7623C268.907 27.7926 270.859 27.113 272.043 25.7623C274.859 24.3857 277.62 22.9571 280.432 21.5762C281.651 19.9442 282.375 17.8143 284.394 16.9961C284.586 16.5502 285.106 15.9571 285.17 15.6541C285.17 15.6584 285.097 15.6498 285.093 15.6541C284.471 16.0264 283.823 16.3727 283.176 16.7147C283.514 16.3938 283.907 16.1372 284.335 15.9571C284.556 15.6844 284.641 15.2732 284.957 15.087C284.952 14.8489 285.123 14.7796 285.191 14.6151C285.272 14.5675 285.685 14.2861 285.344 14.2991C279.674 17.4203 273.705 20.0697 267.863 22.9831C262.303 25.758 256.709 28.4896 251.184 31.2688C252.351 29.0264 253.557 26.8273 254.715 24.5762L254.128 24.6022C254.328 24.2212 254.532 23.8403 254.733 23.4593C252.611 23.3814 250.89 23.7104 248.751 23.6195C248.337 23.5675 248.355 23.074 248.052 22.9095C245.129 28.3857 242.211 33.8662 239.352 39.4074C239.454 39.6238 239.569 39.8749 239.684 40.1303L239.646 40.2082C238.717 41.9918 237.644 43.732 236.928 45.6541C238.061 47.0307 240 48.2688 241.589 49.442C241.997 48.4018 242.49 47.3983 243.063 46.442C244.648 43.5502 246.246 40.6758 247.801 37.758C250.579 39.1433 253.19 40.7017 255.802 42.2558C256.045 42.4853 256.173 42.8273 256.501 42.9658C262.862 46.5589 269.376 50.0004 275.848 53.5459C282.315 57.087 288.817 60.6281 295.271 63.9658C295.131 63.9874 295.655 64.4073 295.736 64.2039C295.616 64.0425 295.531 63.8574 295.486 63.6605C295.442 63.4636 295.438 63.2594 295.476 63.061Z" fill="#52BEDC"/>
</svg>
